<?xml version="1.0" encoding="UTF-8" standalone="no"?>
<svg
   xmlns:dc="http://purl.org/dc/elements/1.1/"
   xmlns:cc="http://creativecommons.org/ns#"
   xmlns:rdf="http://www.w3.org/1999/02/22-rdf-syntax-ns#"
   xmlns:svg="http://www.w3.org/2000/svg"
   xmlns="http://www.w3.org/2000/svg"
   xmlns:xlink="http://www.w3.org/1999/xlink"
   xmlns:sodipodi="http://sodipodi.sourceforge.net/DTD/sodipodi-0.dtd"
   xmlns:inkscape="http://www.inkscape.org/namespaces/inkscape"
   width="210mm"
   height="297mm"
   viewBox="0 0 210 297"
   version="1.1"
   id="svg8"
   inkscape:version="1.0 (9f2f71dc58, 2020-08-02)"
   sodipodi:docname="logo.svg">
  <defs
     id="defs2">
    <rect
       x="-7.070524"
       y="20.285999"
       width="282.49871"
       height="66.115612"
       id="rect22" />
    <linearGradient
       inkscape:collect="always"
       id="linearGradient851">
      <stop
         style="stop-color:#55b3ef;stop-opacity:1"
         offset="0"
         id="stop847" />
      <stop
         style="stop-color:#116ea9;stop-opacity:0;"
         offset="1"
         id="stop849" />
    </linearGradient>
    <linearGradient
       inkscape:collect="always"
       xlink:href="#linearGradient851"
       id="linearGradient853"
       x1="40.777596"
       y1="32.403172"
       x2="-57.462948"
       y2="127.01658"
       gradientUnits="userSpaceOnUse" />
  </defs>
  <sodipodi:namedview
     id="base"
     pagecolor="#ffffff"
     bordercolor="#666666"
     borderopacity="1.0"
     inkscape:pageopacity="0.0"
     inkscape:pageshadow="2"
     inkscape:zoom="0.7"
     inkscape:cx="344.91896"
     inkscape:cy="530.97816"
     inkscape:document-units="mm"
     inkscape:current-layer="layer1"
     showgrid="false"
     inkscape:window-width="1920"
     inkscape:window-height="1016"
     inkscape:window-x="0"
     inkscape:window-y="1107"
     inkscape:window-maximized="1"
     showguides="true"
     inkscape:guide-bbox="true"
     inkscape:document-rotation="0">
    <sodipodi:guide
       position="108.51143,264.59683"
       orientation="0,1"
       id="guide865"
       inkscape:locked="false" />
    <sodipodi:guide
       position="33.40869,236.80081"
       orientation="0,1"
       id="guide867"
       inkscape:locked="false" />
  </sodipodi:namedview>
  <metadata
     id="metadata5">
    <rdf:RDF>
      <cc:Work
         rdf:about="">
        <dc:format>image/svg+xml</dc:format>
        <dc:type
           rdf:resource="http://purl.org/dc/dcmitype/StillImage" />
        <dc:title />
      </cc:Work>
    </rdf:RDF>
  </metadata>
  <g
     inkscape:groupmode="layer"
     id="layer2"
     inkscape:label="Layer 2"
     sodipodi:insensitive="true">
    <rect
       style="opacity:0.98000004;fill:#000000;fill-opacity:1;stroke-width:0.26458332"
       id="rect874"
       width="562.42859"
       height="180.67261"
       x="-101.29762"
       y="-22.011906" />
  </g>
  <g
     inkscape:label="Layer 1"
     inkscape:groupmode="layer"
     id="layer1">
    <path
       style="fill:url(#linearGradient853);fill-opacity:1;stroke-width:0.00784103"
       d="m 27.794881,34.625591 c 0.20166,-0.179104 0.263202,-0.232342 0.366369,-0.316944 1.574376,-1.291149 3.460907,-1.841908 5.36082,-1.565053 1.286525,0.187472 2.506712,0.738533 3.614299,1.632293 0.363642,0.293434 0.794453,0.708316 1.067647,1.028155 0.845347,0.989677 1.394413,2.120828 1.639709,3.378017 0.09394,0.481479 0.132487,0.887141 0.132343,1.392886 -1.18e-4,0.409013 -0.01901,0.680481 -0.07364,1.058106 -0.200013,1.382639 -0.794364,2.693669 -1.72085,3.795877 -0.327342,0.389429 -0.713819,0.770017 -1.065763,1.049521 -0.690542,0.548412 -1.460125,0.957009 -2.381162,1.264237 -1.156217,0.385675 -2.521732,0.591414 -4.336584,0.65338 -0.503232,0.01718 -0.783314,0.0217 -1.877588,0.0303 -0.399693,0.0031 -0.749185,0.0063 -0.77665,0.007 l -0.04994,0.0013 -0.0031,0.02562 c -0.0017,0.01409 -0.0077,0.334016 -0.01345,0.710949 -0.02557,1.686309 -0.04605,2.252731 -0.109987,3.04193 -0.177389,2.189572 -0.662112,3.808562 -1.549625,5.175787 -0.507701,0.782121 -1.188142,1.510315 -1.944305,2.080757 -1.868081,1.409264 -4.132258,1.798988 -6.286415,1.082056 -0.900371,-0.299655 -1.746496,-0.778928 -2.531161,-1.433734 -0.220261,-0.183809 -0.356913,-0.309178 -0.581206,-0.533228 -0.28366,-0.283349 -0.482897,-0.51173 -0.703815,-0.806813 -1.388998,-1.855233 -1.813828,-4.240452 -1.153402,-6.475821 0.284639,-0.963434 0.773712,-1.879221 1.432194,-2.681787 0.311653,-0.379851 0.682671,-0.757031 1.017267,-1.034179 1.011948,-0.838213 2.2557,-1.395079 3.810602,-1.706124 0.836701,-0.167376 1.786197,-0.268838 2.900094,-0.309902 0.464443,-0.01712 0.860221,-0.02234 1.797698,-0.02372 l 1.026815,-0.0015 0.0019,-0.289427 c 0.01328,-2.020865 0.03791,-2.776801 0.120449,-3.697002 0.20851,-2.324586 0.817061,-4.068279 1.916369,-5.491013 0.09314,-0.120542 0.204851,-0.256608 0.334961,-0.407996 0.06952,-0.08088 0.54779,-0.570681 0.619061,-0.633984 z m 1.410156,2.835078 c -0.762587,0.937801 -1.20841,2.096028 -1.421244,3.692322 -0.122397,0.917983 -0.159565,1.946378 -0.134053,3.709057 l 0.0046,0.317474 0.14156,-0.005 c 0.224075,-0.0079 0.602956,-0.01399 1.284847,-0.0207 0.929805,-0.0091 1.312247,-0.01817 1.749368,-0.04127 1.334711,-0.07056 2.335523,-0.267959 3.185902,-0.628399 1.170786,-0.496244 2.06393,-1.355951 2.526173,-2.4316 0.30521,-0.710226 0.41548,-1.500463 0.317433,-2.274828 -0.131806,-1.040996 -0.620527,-1.989244 -1.387915,-2.692924 -0.226482,-0.20768 -0.397411,-0.343269 -0.622523,-0.493815 -0.880689,-0.588972 -1.876223,-0.835684 -2.876421,-0.712832 -0.05869,0.0072 -0.180599,0.02772 -0.270907,0.04557 -0.704046,0.139192 -1.349179,0.459867 -1.938916,0.963772 -0.106301,0.09083 -0.467111,0.461474 -0.5579,0.573168 z M 16.57766,50.088256 c -0.351994,0.438597 -0.59828,0.888572 -0.764869,1.397465 -0.348364,1.064181 -0.271997,2.240846 0.211533,3.25925 0.163607,0.344589 0.365763,0.656531 0.627899,0.968901 0.09049,0.107827 0.370402,0.387817 0.490618,0.49075 0.509144,0.43595 1.035272,0.737389 1.613235,0.924297 0.751652,0.243081 1.543777,0.265526 2.293623,0.06499 0.523328,-0.139956 1.048304,-0.405704 1.501872,-0.760262 0.20727,-0.162026 0.498642,-0.440074 0.661036,-0.630822 0.550474,-0.646562 0.934018,-1.387748 1.200596,-2.320128 0.28776,-1.00646 0.423642,-2.19239 0.433617,-3.78446 0.0023,-0.358357 -0.0038,-1.380825 -0.0095,-1.609508 l -0.0023,-0.09197 -0.102801,0.004 c -0.203228,0.0079 -0.603724,0.01469 -1.326414,0.02236 -1.029534,0.01092 -1.274023,0.01668 -1.740797,0.04102 -1.808697,0.09429 -3.069232,0.434751 -4.058196,1.096099 -0.178852,0.119598 -0.31994,0.227972 -0.523683,0.40224 -0.07856,0.0672 -0.435069,0.437963 -0.505509,0.525758 z"
       id="path826"
       inkscape:connector-curvature="0"
       inkscape:export-filename="/home/mike/Documents/reactjs/weavemail_2/public/images/evermore-logo.png"
       inkscape:export-xdpi="33.739517"
       inkscape:export-ydpi="33.739517" />
    <flowRoot
       xml:space="preserve"
       id="flowRoot855"
       style="font-style:normal;font-variant:normal;font-weight:normal;font-stretch:normal;font-size:40.0003px;line-height:1.25;font-family:'URW Gothic L';-inkscape-font-specification:'URW Gothic L, Normal';font-variant-ligatures:normal;font-variant-caps:normal;font-variant-numeric:normal;font-feature-settings:normal;text-align:start;letter-spacing:0px;word-spacing:0px;writing-mode:lr-tb;text-anchor:start;fill:#f9f9f9;fill-opacity:1;stroke:none;"
       transform="matrix(0.91663908,0,0,0.91663908,-104.26865,-89.971842)"
       inkscape:export-filename="/home/mike/Documents/reactjs/weavemail_2/public/images/evermore-logo.png"
       inkscape:export-xdpi="33.739517"
       inkscape:export-ydpi="33.739517"><flowRegion
         id="flowRegion857"
         style="font-style:normal;font-variant:normal;font-weight:normal;font-stretch:normal;font-size:40.0003px;font-family:'URW Gothic L';-inkscape-font-specification:'URW Gothic L, Normal';font-variant-ligatures:normal;font-variant-caps:normal;font-variant-numeric:normal;font-feature-settings:normal;text-align:start;writing-mode:lr-tb;text-anchor:start;fill:#f9f9f9;fill-opacity:1;"><rect
           id="rect859"
           width="388.7384"
           height="112.68322"
           x="161.6244"
           y="126.50928"
           style="font-style:normal;font-variant:normal;font-weight:normal;font-stretch:normal;font-size:40.00032806px;font-family:'URW Gothic L';-inkscape-font-specification:'URW Gothic L, Normal';font-variant-ligatures:normal;font-variant-caps:normal;font-variant-numeric:normal;font-feature-settings:normal;text-align:start;writing-mode:lr-tb;text-anchor:start;fill:#f9f9f9;fill-opacity:1;" /></flowRegion><flowPara
         id="flowPara863"
         style="font-style:normal;font-variant:normal;font-weight:normal;font-stretch:normal;font-size:40.0003px;font-family:'URW Gothic L';-inkscape-font-specification:'URW Gothic L, Normal';font-variant-ligatures:normal;font-variant-caps:normal;font-variant-numeric:normal;font-feature-settings:normal;text-align:start;writing-mode:lr-tb;text-anchor:start;opacity:0.98;fill:#f9f9f9;fill-opacity:1;">Evermore</flowPara></flowRoot>
    <text
       xml:space="preserve"
       id="text20"
       style="fill:black;fill-opacity:1;line-height:1.25;stroke:none;font-family:sans-serif;font-style:normal;font-weight:normal;font-size:10.58333333px;white-space:pre;shape-inside:url(#rect22);" />
  </g>
</svg>
